/* XPM */
static char * F:\door_xpm[] = {
"64 64 3 1",
" 	c #FF00FF",
".	c #9B833D",
"+	c #2D291B",
"                                                                ",
"                                                                ",
"                                                                ",
"                                                                ",
"                                                                ",
"                                                                ",
"                                                                ",
"                            .........                           ",
"                        .................                       ",
"                      .....................                     ",
"                    .........................                   ",
"                  .............+...............                 ",
"                 ..............+................                ",
"                ..............++.................               ",
"               ...............++..................              ",
"              ................++...................             ",
"             .................++....................            ",
"            ..................++.....................           ",
"           ...................++......................          ",
"           ...................++......................          ",
"          ....................++.......................         ",
"          ....................++.......................         ",
"         .....................++........................        ",
"         .....................++........................        ",
"        ......................++.........................       ",
"        ......................+++........................       ",
"        ......................+++........................       ",
"        ......................+++........................       ",
"       .......................+++.........................      ",
"       .......................+++.........................      ",
"       ........+..............+++.........................      ",
"       ........+..............+++.........................      ",
"       .......++..............+++.........................      ",
"       .......++..............+++.........................      ",
"       .......++..............+++.........................      ",
"       .......++..............+++.........................      ",
"       .......++..............+++..........+..............      ",
"       .......++..............+++..........+..............      ",
"       .......++..............+++.........++..............      ",
"       .......++..............+++.........++..............      ",
"       .......++..............+++.........++.....++++++...      ",
"       .......++..............+++.........++.....++++++...      ",
"       .......++..............+++.........++.....++++++...      ",
"      ........++..............+++.........++......+++++...      ",
"      ........+++.............+++.........++......+++++...      ",
"      ........+++.............+++.........++..............      ",
"      ........+++..............++.........++..............      ",
"      ........+++..............++.........++...............     ",
"      ........+++..............++.........++...............     ",
"      ........+++..............++.........++...............     ",
"      ........+++..............++.........+++..............     ",
"      ........+++..............++.........+++..............     ",
"       .......+++..............++.........+++..............     ",
"       .......+++..............++.........+++..............     ",
"       .......+++..............++.........+++..............     ",
"       .......+++..............++.........+++..............     ",
"       .......+++..............++.........+++..............     ",
"       .......+++..............++.........+++..............     ",
"       .......+++..............+..........+++..............     ",
"       .......+++..............+..........+++..............     ",
"       .......+++.........................+++..............     ",
"       .......+++.........................+++..............     ",
"       .......+++.........................+++..............     ",
"       .......+++.........................+++..............     "};
